<svg xmlns="http://www.w3.org/2000/svg" width="270" height="102" viewBox="0 0 270 102">
  <g id="logo" transform="translate(-72 -44)">
    <g id="Union_2" data-name="Union 2" transform="translate(72 46)" fill="#018ed3">
      <path d="M 50 99.5 C 46.64230728149414 99.5 43.28609466552734 99.16166687011719 40.02461242675781 98.49441528320312 C 36.85128021240234 97.84552001953125 33.72480010986328 96.87512969970703 30.73196029663086 95.61021423339844 C 27.799560546875 94.36918640136719 24.97118759155273 92.83369445800781 22.32561302185059 91.04647827148438 C 19.70762634277344 89.27978515625 17.24188041687012 87.24609375 14.99662685394287 85.00176239013672 C 12.74974632263184 82.75133514404297 10.71712017059326 80.28638458251953 8.955546379089355 77.67574310302734 C 7.174600124359131 75.04419708251953 5.638293266296387 72.21534729003906 4.388919830322266 69.26719665527344 C 3.125666618347168 66.27404022216797 2.155920028686523 63.14797210693359 1.506866693496704 59.97649383544922 C 0.8387466669082642 56.7161750793457 0.5 53.35963821411133 0.5 50 C 0.5 46.64034652709961 0.8387466669082642 43.2838134765625 1.506839990615845 40.02362823486328 C 2.155920028686523 36.85184097290039 3.125679969787598 33.72576141357422 4.389200210571289 30.73212051391602 C 5.638306617736816 27.78459930419922 7.174613475799561 24.95575904846191 8.955160140991211 22.32482719421387 C 10.71677303314209 19.71396064758301 12.74940013885498 17.24901390075684 14.99697303771973 14.99789333343506 C 17.24188041687012 12.75390625 19.70762634277344 10.72021293640137 22.32541275024414 8.953653335571289 C 24.9711742401123 7.166319847106934 27.79954719543457 5.630813121795654 30.73218727111816 4.389679908752441 C 33.72489166259766 3.124826669692993 36.85138702392578 2.154453277587891 40.02455902099609 1.505613327026367 C 43.28614807128906 0.8383333086967468 46.6423454284668 0.5 50 0.5 C 53.357666015625 0.5 56.7138671875 0.8383333086967468 59.97538757324219 1.505599975585938 C 63.15724182128906 2.156213283538818 66.28363800048828 3.126546621322632 69.26781463623047 4.389666557312012 C 72.200439453125 5.630813121795654 75.02881622314453 7.166306495666504 77.67438507080078 8.953519821166992 C 80.29234313964844 10.72019958496094 82.75811767578125 12.75389289855957 85.00338745117188 14.99824047088623 C 87.23654937744141 17.2304801940918 89.27066802978516 19.69546699523926 91.04926300048828 22.32473373413086 C 92.84116363525391 24.97901344299316 94.37598419189453 27.80782699584961 95.61085510253906 30.73220062255859 C 96.87883758544922 33.72606658935547 97.84848022460938 36.85171890258789 98.49301147460938 40.0228385925293 C 99.1612548828125 43.28384017944336 99.5 46.64037322998047 99.5 50 C 99.5 53.35961151123047 99.1612548828125 56.71614837646484 98.49317169189453 59.97637176513672 C 97.84848022460938 63.14828109741211 96.87883758544922 66.27393341064453 95.61105346679688 69.26729583740234 C 94.37599945068359 72.19213104248047 92.84117126464844 75.02095031738281 91.04900360107422 77.67565155029297 C 89.27066802978516 80.30451965332031 87.23654937744141 82.76950836181641 85.00338745117188 85.00176239013672 C 82.75758361816406 87.24645233154297 80.29182434082031 89.28015899658203 77.67458343505859 91.04634857177734 C 75.02880096435547 92.83370971679688 72.20042419433594 94.36920166015625 69.26782989501953 95.61030578613281 C 66.27521514892578 96.87512969970703 63.14871978759766 97.84552001953125 59.97542572021484 98.49440002441406 C 56.71392059326172 99.16166687011719 53.35770797729492 99.5 50 99.5 Z M 9.93177318572998 44.00129318237305 L 9.817159652709961 44.91159820556641 C 9.606120109558105 46.58778762817383 9.499106407165527 48.29975891113281 9.499106407165527 50 C 9.499106407165527 72.33173370361328 27.66773414611816 90.49992370605469 50 90.49992370605469 C 54.0864143371582 90.49992370605469 58.12077331542969 89.89031982421875 61.99103927612305 88.68804168701172 L 62.86579895019531 88.41629028320312 L 62.16409301757812 87.82752227783203 L 10.6346263885498 44.59104156494141 L 9.93177318572998 44.00129318237305 Z M 31.6476936340332 13.8987865447998 L 31.23072052001953 14.11777305603027 C 23.3716926574707 18.2451057434082 16.98558616638184 24.94593238830566 13.24881362915039 32.98589324951172 L 13.08730697631836 33.33335876464844 L 13.38084030151367 33.57965469360352 L 72.52162933349609 83.20252227783203 L 72.81509399414062 83.44876098632812 L 73.12921142578125 83.22947692871094 C 84.00681304931641 75.63637542724609 90.50090789794922 63.21413421630859 90.50090789794922 50 C 90.50090789794922 44.04377365112305 89.23155975341797 38.30278778076172 86.72811889648438 32.93650817871094 L 86.29146575927734 32.00051879882812 L 85.82813262939453 32.92358779907227 L 71.60336303710938 61.2625617980957 L 71.47959899902344 61.50912094116211 L 71.62218475341797 61.74529266357422 L 71.69517517089844 61.86618423461914 L 71.28266906738281 62.09317398071289 L 71.14582824707031 62.1684684753418 L 71.10120391845703 62.25803756713867 L 71.03837585449219 62.22829437255859 L 70.81427764892578 62.35186767578125 L 63.38711547851562 66.44749450683594 L 31.89118576049805 14.30193328857422 L 31.6476936340332 13.8987865447998 Z M 50 9.500080108642578 C 47.10047912597656 9.500080108642578 44.2053337097168 9.809653282165527 41.39494705200195 10.42018699645996 L 40.71152114868164 10.56865310668945 L 41.07310485839844 11.16729354858398 L 65.13766479492188 51.00856018066406 L 65.60611724853516 51.78414535522461 L 66.01253509521484 50.97431945800781 L 79.93738555908203 23.22726631164551 L 80.09194946289062 22.91927909851074 L 79.85914611816406 22.66521263122559 C 72.19286346435547 14.29858684539795 61.30961227416992 9.500080108642578 50 9.500080108642578 Z" stroke="none"/>
      <path d="M 50 99 C 53.32411956787109 99 56.64659881591797 98.66507720947266 59.87526702880859 98.00453186035156 C 63.01623916625977 97.36226654052734 66.11093139648438 96.40174865722656 69.07295989990234 95.14985656738281 C 71.97585296630859 93.92131042480469 74.77562713623047 92.40133666992188 77.39490509033203 90.63188171386719 C 79.9857177734375 88.88352203369141 82.42666625976562 86.87029266357422 84.64990997314453 84.64813232421875 C 86.86060333251953 82.43833160400391 88.87432098388672 79.99806976318359 90.63459777832031 77.39589691162109 C 92.40868377685547 74.76797485351562 93.92796325683594 71.96784973144531 95.15065002441406 69.07229614257812 C 96.40544128417969 66.10961151123047 97.36513519287109 63.01605224609375 98.00335693359375 59.87599945068359 C 98.66468048095703 56.64873504638672 99 53.32597351074219 99 50 C 99 46.67401504516602 98.66468048095703 43.35125350952148 98.00303649902344 40.12244033813477 C 97.36513519287109 36.98395919799805 96.40545654296875 33.89039993286133 95.15023040771484 30.92670631408691 C 93.92794799804688 28.03210639953613 92.40866851806641 25.23198699951172 90.63511657714844 22.60489273071289 C 88.87432098388672 20.00192070007324 86.86060333251953 17.56165313720703 84.64990997314453 15.35186672210693 C 82.42716979980469 13.13005352020264 79.98623657226562 11.1168270111084 77.39449310302734 9.367839813232422 C 74.77564239501953 7.598680019378662 71.97588348388672 6.078706741333008 69.07290649414062 4.850120067596436 C 66.11920166015625 3.59989333152771 63.02466583251953 2.639453411102295 59.87516021728516 1.995453357696533 C 56.64656066894531 1.334920048713684 53.32408142089844 1 50 1 C 46.67593383789062 1 43.35345458984375 1.334920048713684 40.12473297119141 1.995479941368103 C 36.98386764526367 2.637706756591797 33.8891716003418 3.59821343421936 30.92705345153809 4.850133419036865 C 28.02412033081055 6.078706741333008 25.22434616088867 7.598680019378662 22.60509300231934 9.368120193481445 C 20.01374626159668 11.11684036254883 17.57281303405762 13.13006687164307 15.3508129119873 15.35116004943848 C 13.12569332122803 17.57978630065918 11.11346626281738 20.01996040344238 9.369239807128906 22.60506629943848 C 7.606800079345703 25.2092399597168 6.086066722869873 28.00943946838379 4.849853515625 30.92654609680176 C 3.599106550216675 33.88990783691406 2.639173269271851 36.98427963256836 1.996653318405151 40.12400054931641 C 1.335319995880127 43.35122680664062 1 46.67399978637695 1 50 C 1 53.32598495483398 1.335319995880127 56.64876174926758 1.99670672416687 59.87625503540039 C 2.639173269271851 63.01551818847656 3.599106550216675 66.10990905761719 4.849279880523682 69.07210540771484 C 6.086053371429443 71.99050903320312 7.606786727905273 74.79071807861328 9.370013236999512 77.39608001708984 C 11.11381340026855 79.98036956787109 13.1260404586792 82.42054748535156 15.35010623931885 84.64813232421875 C 17.57281303405762 86.86993408203125 20.01374626159668 88.88316345214844 22.60550689697266 90.63215637207031 C 25.2243595123291 92.40132141113281 28.02413368225098 93.92129516601562 30.92661285400391 95.14966583251953 C 33.88906478881836 96.40174865722656 36.98377227783203 97.36226654052734 40.12483978271484 98.00456237792969 C 43.35340118408203 98.66507720947266 46.6758918762207 99 50 99 M 9.55030632019043 43.02853393554688 L 63.88889312744141 88.62203979492188 L 62.13937377929688 89.16553497314453 C 58.22102737426758 90.38274383544922 54.13676071166992 90.99992370605469 50 90.99992370605469 C 27.39202690124512 90.99992370605469 8.999106407165527 72.60742950439453 8.999106407165527 50 C 8.999106407165527 48.27896118164062 9.107426643371582 46.54595947265625 9.321066856384277 44.84914779663086 L 9.55030632019043 43.02853393554688 M 31.83218574523926 13.23714637756348 L 63.56658935546875 65.77754211425781 L 70.99812316894531 61.67904281616211 L 70.90897369384766 61.53138732910156 L 86.30792999267578 30.8531608581543 L 87.18123626708984 32.72512054443359 C 89.71578979492188 38.1580810546875 91.00090789794922 43.97018814086914 91.00090789794922 50 C 91.00090789794922 63.37739944458008 84.4268798828125 75.95290374755859 73.41539764404297 83.63948059082031 L 72.78716278076172 84.07801055908203 L 12.47238636016846 33.47010803222656 L 12.79538631439209 32.775146484375 C 16.5781192779541 24.63632011413574 23.04269409179688 17.85313415527344 30.99825286865234 13.6751070022583 L 31.83218574523926 13.23714637756348 M 50 9.000080108642578 C 61.44944000244141 9.000080108642578 72.46705627441406 13.85770702362061 80.22779846191406 22.32742691040039 L 80.69339752197266 22.8355598449707 L 65.64659881591797 52.81824111938477 L 39.92194747924805 10.22852039337158 L 41.28879928588867 9.931586265563965 C 44.13398742675781 9.313480377197266 47.06486511230469 9.000080108642578 50 9.000080108642578 M 50 100 C 46.60697174072266 100 43.21844100952148 99.65818786621094 39.92440032958984 98.98426818847656 C 36.71137237548828 98.32725524902344 33.55683898925781 97.34696960449219 30.53730583190918 96.07077026367188 C 27.57628059387207 94.817626953125 24.71874618530273 93.26656341552734 22.04571914672852 91.46080017089844 C 19.39520072937012 89.67214965820312 16.90666580200195 87.61798858642578 14.64314651489258 85.35538482666016 C 12.38411998748779 83.09278869628906 10.32759952545166 80.60302734375 8.541080474853516 77.95541381835938 C 6.732066631317139 75.28240966796875 5.184053421020508 72.42491912841797 3.928546667098999 69.46229553222656 C 2.65502667427063 66.44478607177734 1.674013376235962 63.28705215454102 1.017013311386108 60.07674789428711 C 0.3420000076293945 56.78274536132812 0 53.39245223999023 0 50 C 0 46.60754776000977 0.3420000076293945 43.21723937988281 1.017013311386108 39.92325210571289 C 1.674013376235962 36.71277236938477 2.65502667427063 33.55502700805664 3.928546667098999 30.53769302368164 C 5.184053421020508 27.57508087158203 6.732066631317139 24.71757316589355 8.541080474853516 22.04458618164062 C 10.32759952545166 19.39678573608398 12.38411998748779 16.90719985961914 14.64314651489258 14.64461326599121 C 16.90666580200195 12.38201332092285 19.39520072937012 10.32785320281982 22.04571914672852 8.539199829101562 C 24.71874618530273 6.733439922332764 27.57628059387207 5.182373523712158 30.53730583190918 3.929213285446167 C 33.55683898925781 2.653026580810547 36.71137237548828 1.672733306884766 39.92440032958984 1.015746712684631 C 43.21844100952148 0.3418266773223877 46.60697174072266 0 50 0 C 53.39303970336914 0 56.78157424926758 0.3418266773223877 60.07559967041016 1.015746712684631 C 63.28863906860352 1.672733306884766 66.44766998291016 2.653026580810547 69.46270751953125 3.929213285446167 C 72.42373657226562 5.182373523712158 75.28125 6.733439922332764 77.95427703857422 8.539199829101562 C 80.60479736328125 10.32785320281982 83.09333038330078 12.38201332092285 85.35686492919922 14.64461326599121 C 87.62038421630859 16.90719985961914 89.67240142822266 19.39695930480957 91.46341705322266 22.04458618164062 C 93.26793670654297 24.71757316589355 94.82044982910156 27.57508087158203 96.07146453857422 30.53769302368164 C 97.34947967529297 33.55521392822266 98.33049011230469 36.71294784545898 98.98300170898438 39.92325210571289 C 99.65799713134766 43.21723937988281 100 46.60754776000977 100 50 C 100 53.39245223999023 99.65799713134766 56.78274536132812 98.98300170898438 60.07674789428711 C 98.33049011230469 63.28705215454102 97.34947967529297 66.44478607177734 96.07146453857422 69.46229553222656 C 94.82044982910156 72.42491912841797 93.26793670654297 75.28240966796875 91.46341705322266 77.95541381835938 C 89.67240142822266 80.60302734375 87.62038421630859 83.09278869628906 85.35686492919922 85.35538482666016 C 83.09333038330078 87.61781311035156 80.60479736328125 89.67214965820312 77.95427703857422 91.46080017089844 C 75.28125 93.26656341552734 72.42373657226562 94.817626953125 69.46270751953125 96.07077026367188 C 66.44317626953125 97.34696960449219 63.28863906860352 98.32725524902344 60.07559967041016 98.98426818847656 C 56.78157424926758 99.65818786621094 53.39303970336914 100 50 100 Z M 10.31324005126953 44.97406768798828 C 10.10595989227295 46.620361328125 9.999106407165527 48.29840087890625 9.999106407165527 50 C 9.999106407165527 72.05609130859375 27.94528007507324 89.99992370605469 50 89.99992370605469 C 54.12179946899414 89.99992370605469 58.09823989868164 89.37374877929688 61.84270477294922 88.21054840087891 L 10.31324005126953 44.97406768798828 Z M 31.46319961547852 14.56044006347656 C 23.6889591217041 18.64323997497559 17.41510581970215 25.20809364318848 13.70222663879395 33.19662857055664 L 72.84300994873047 82.81949615478516 C 83.20805358886719 75.58417510986328 90.00090789794922 63.57101440429688 90.00090789794922 50 C 90.00090789794922 43.98249435424805 88.66561126708984 38.27231979370117 86.27500152587891 33.14789199829102 L 72.05022430419922 61.48686599731445 L 72.39222717285156 62.05332183837891 L 71.52371978759766 62.53122711181641 L 71.33021545410156 62.9196662902832 L 71.05571746826172 62.78970718383789 L 63.2076416015625 67.11743927001953 L 31.46319961547852 14.56044006347656 Z M 50 10.00008010864258 C 47.08432006835938 10.00008010864258 44.24118804931641 10.31352043151855 41.50109481811523 10.90878677368164 L 65.56565093994141 50.75005340576172 L 79.49050903320312 23.00300025939941 C 72.17205047607422 15.01598644256592 61.66004180908203 10.00008010864258 50 10.00008010864258 Z" stroke="none" fill="#018ed3"/>
    </g>
    <g id="Group_41" data-name="Group 41" transform="translate(-432 631)">
      <text id="Virtual" transform="translate(614 -533)" fill="#018ed3" font-size="50" font-family="SegoeUI-Bold, Segoe UI" font-weight="700"><tspan x="0" y="0">Virtual</tspan></text>
      <text id="Printing_Press" data-name="Printing Press" transform="translate(614 -497)" fill="#1f1f1f" font-size="21" font-family="SegoeUI-Bold, Segoe UI" font-weight="700"><tspan x="0" y="0">Printing Press</tspan></text>
    </g>
  </g>
</svg>
